# xmcd
#
# Track frame offsets: 
#        150
#        10423
#        17746
#        28667
#        39890
#        52272
#        58531
#        68620
#        72892
#        83230
#        88097
#
# Disc length: 1361 seconds
#
# Revision: 0
# Processed by: cddbd v1.5.2PL0 Copyright (c) Steve Scherf et al.
# Submitted via: ExactAudioCopy v0.99pb5
#
DISCID=8a054f0b
DTITLE=Extirpated - Decomposition and Decay
DYEAR=2011
DGENRE=Death Metal
TTITLE0=Captain Syphilis
TTITLE1=Clit Commander
TTITLE2=Decomposition and Decay
TTITLE3=Genetic Anomalies
TTITLE4=Disfigured
TTITLE5=Kill Your Mother, Rape Your Dog (Dying Fetus Cover)
TTITLE6=The Art Of Stabbing
TTITLE7=Gagged
TTITLE8=Deformity
TTITLE9=Fetus Grinder
TTITLE10=Extirpation Of The Human Race
EXTD=
EXTT0=
EXTT1=
EXTT2=
EXTT3=
EXTT4=
EXTT5=
EXTT6=
EXTT7=
EXTT8=
EXTT9=
EXTT10=
PLAYORDER=
